# xmcd
#
# Track frame offsets:
#	150
#	20800
#	36000
#	52477
#	75257
#	102660
#	120265
#	137725
#	152800
#	169942
#	184467
#	201272
#	219834
#	236034
#
# Disc length: 3336
#
# Revision: 1
# Processed by: cddbd v1.5.1PL0 Copyright (c) Steve Scherf et al.
# Submitted via: EasyCDDAExtractor 4.6.9.1
# Normalized: r0:TRMNUM
#
DISCID=c80d060e
DTITLE=The New Star Orchestra - Guitar 1 Blues
DYEAR=1900
DGENRE=Blues
TTITLE0=Thears in Hawen
TTITLE1=Black Magic Woman
TTITLE2=I Need Your...
TTITLE3=Still Got The..
TTITLE4=Layla
TTITLE5=The Bug
TTITLE6=The Joker
TTITLE7=White Room
TTITLE8=Fde To Black
TTITLE9=Samba Pa Ti
TTITLE10=Lay Down Sally
TTITLE11=After Midnicht
TTITLE12=I Shot The Sefiff
TTITLE13=Cocaine
EXTD=
EXTT0=
EXTT1=
EXTT2=
EXTT3=
EXTT4=
EXTT5=
EXTT6=
EXTT7=
EXTT8=
EXTT9=
EXTT10=
EXTT11=
EXTT12=
EXTT13=
PLAYORDER=
